<svg id="google-logo" xmlns="http://www.w3.org/2000/svg" viewBox="0 0 395.44 129.7"><defs><style>.cls-1{fill:#5f6368;}</style></defs><title>google-1</title><path class="cls-1" d="M51.07,100.75C23.33,100.75,0,78.17,0,50.4S23.32,0,51.07,0a48,48,0,0,1,34.5,13.89l-9.7,9.71a35,35,0,0,0-24.8-9.85C30.81,13.75,15,30.12,15,50.4S30.84,87,51.1,87c13.14,0,20.63-5.28,25.42-10.08C80.42,73,83,67.36,84,59.61H51.07V45.85H97.36a44.38,44.38,0,0,1,.74,8.61c0,10.32-2.82,23.1-11.91,32.2C77.35,95.87,66.05,100.75,51.07,100.75Z" transform="translate(0 0.01)"/><path class="cls-1" d="M167.57,68.12c0,18.68-14.6,32.44-32.53,32.44S102.5,86.8,102.5,68.12,117.11,35.67,135,35.67s32.53,13.65,32.53,32.45Zm-14.24,0c0-11.68-8.47-19.67-18.29-19.67s-18.3,8-18.3,19.67S125.21,87.75,135,87.75s18.29-8.11,18.29-19.66Z" transform="translate(0 0.01)"/><path class="cls-1" d="M238.28,68.12c0,18.68-14.61,32.44-32.53,32.44S173.21,86.8,173.21,68.12s14.61-32.45,32.54-32.45S238.28,49.32,238.28,68.12Zm-14.24,0c0-11.68-8.47-19.67-18.29-19.67s-18.3,8-18.3,19.67,8.47,19.63,18.3,19.63S224,79.67,224,68.12Z" transform="translate(0 0.01)"/><path class="cls-1" d="M306.05,37.69v58.2c0,24-14.12,33.8-30.82,33.8a30.88,30.88,0,0,1-28.73-19.17l12.4-5.16c2.21,5.28,7.61,11.55,16.33,11.55,10.68,0,17.31-6.64,17.31-19V93.19h-.49c-3.19,3.93-9.34,7.37-17.07,7.37-16.21,0-31.06-14.13-31.06-32.32S258.77,35.67,275,35.67c7.73,0,13.87,3.44,17.07,7.25h.49V37.69ZM293.52,68.24c0-11.43-7.61-19.79-17.31-19.79s-18,8.36-18,19.79,8.18,19.51,18,19.51,17.31-8.23,17.31-19.54Z" transform="translate(0 0.01)"/><path class="cls-1" d="M330,3.3V98.67H315.72V3.3Z" transform="translate(0 0.01)"/><path class="cls-1" d="M383.76,78.81l11.05,7.37a32.24,32.24,0,0,1-27,14.38C349.4,100.56,336,86.31,336,68.12c0-19.3,13.5-32.45,30.2-32.45s25,13.4,27.74,20.65L395.44,60,352.1,78c3.31,6.51,8.47,9.83,15.71,9.83s12.28-3.57,16-9Zm-34-11.68,29-12c-1.6-4.06-6.39-6.88-12-6.88-7.24,0-17.31,6.38-16.95,18.92Z" transform="translate(0 0.01)"/></svg>