<?xml version="1.0" encoding="utf-8"?>
<!-- Generator: Adobe Illustrator 24.0.2, SVG Export Plug-In . SVG Version: 6.00 Build 0)  -->
<svg version="1.1" id="Layer_1" xmlns="http://www.w3.org/2000/svg" xmlns:xlink="http://www.w3.org/1999/xlink" x="0px" y="0px"
	 viewBox="0 0 512 512" style="enable-background:new 0 0 512 512;" xml:space="preserve">
<title>help</title>
<path d="M256,0C114.6,0,0,114.6,0,256s114.6,256,256,256s256-114.6,256-256S397.4,0,256,0z M281.6,435.2h-51.2V384h51.2V435.2z
	 M334.5,236.9l-22.9,23.6c-18.4,18.4-30,33.9-30,72.3h-51.2V320c0-28.3,11.5-53.9,30-72.4l31.9-32.3c9.2-9.2,15-22,15-36.1
	c0-28.3-22.9-51.2-51.2-51.2s-51.2,22.9-51.2,51.2h-51.2c0-56.6,45.8-102.4,102.4-102.4s102.4,45.8,102.4,102.4
	C358.4,201.7,349.3,222.1,334.5,236.9z"/>
</svg>
